<svg width="40" height="40" viewBox="0 0 40 40" fill="none" xmlns="http://www.w3.org/2000/svg">
<path d="M24 4C29.5228 4 34 8.47715 34 14V24C34 25.6689 36.6252 29.7932 38.6602 32.7402C39.5982 34.0987 38.6362 35.9999 36.9854 36H12C6.47715 36 2 31.5228 2 26V14C2 8.47715 6.47715 4 12 4H24ZM14 8C9.58172 8 6 11.5817 6 16V24C6 28.4183 9.58172 32 14 32H22C26.4183 32 30 28.4183 30 24V16C30 11.5817 26.4183 8.00001 22 8H14ZM18.0625 15C19.7536 15 21.1249 16.3504 21.125 18.0156C21.1248 19.1309 20.508 20.1025 19.5938 20.624V23.293C19.5934 24.1253 18.9079 24.7998 18.0625 24.7998C17.2172 24.7998 16.5316 24.1253 16.5312 23.293V20.624C15.6171 20.1025 15.0002 19.1308 15 18.0156C15.0001 16.3504 16.3715 15.0001 18.0625 15Z" fill="#00BC7D"/>
</svg>
